<svg width="1400" height="70" viewBox="0 0 1400 70" fill="none" xmlns="http://www.w3.org/2000/svg">
<path d="M0.342062 23.2902C3.06126 25.9191 7.58402 27.6791 11.3021 29.1495C25.0091 34.5855 40.4086 37.3258 55.392 39.3532C86.7738 43.5862 118.849 44.2323 150.592 43.7867C205.558 42.9846 260.414 38.3506 314.826 32.2908C382.639 24.7383 450.37 18.1661 518.96 18.0769C520.736 18.0769 520.736 15.8491 518.96 15.8491C461.635 15.9159 404.421 20.0375 347.678 26.2978C288.966 32.7587 230.309 39.1527 171.014 41.0687C136.191 42.1826 100.98 42.1603 66.3798 38.4398C49.3709 36.6129 31.8903 34.0286 16.1023 28.4811C11.4963 26.8771 5.58623 24.872 2.31209 21.7307C1.17447 20.6167 -0.795563 22.1985 0.342062 23.2902Z" fill="#1A1A1A"/>
<path d="M881.084 18.0769C940.851 18.1438 1000.51 22.5995 1059.64 29.35C1117.32 35.9223 1175.15 41.7593 1233.44 43.4302C1267.63 44.4105 1302.17 44.21 1336.13 40.4003C1352.87 38.5289 1369.96 35.8554 1385.5 30.3526C1390.21 28.6816 1396.23 26.5874 1399.65 23.2902C1400.78 22.1985 1398.81 20.6167 1397.68 21.7084C1395.07 24.2482 1390.63 25.8968 1386.99 27.3449C1373.2 32.7587 1357.64 35.4098 1342.6 37.3704C1310.55 41.5811 1277.73 42.0712 1245.32 41.4697C1188.85 40.4449 1132.5 35.499 1076.62 29.0827C1011.77 21.6415 946.678 15.9382 881.084 15.8491C879.308 15.8491 879.308 18.0769 881.084 18.0769Z" fill="#1A1A1A"/>
<path d="M881.075 16.7108C743.09 16.728 699.999 69.137 699.999 69.137C699.999 69.137 656.908 16.728 518.977 16.7108C656.963 16.728 699.999 36.6851 699.999 36.6851C699.999 36.6851 743.034 16.728 881.075 16.7108Z" fill="#1A1A1A"/>
<path d="M881.077 15.8491C816.537 16.0042 746.282 28.4472 705.993 61.8987C703.385 64.053 700.805 66.2934 698.807 68.7062C699.612 68.7062 700.416 68.7062 701.193 68.7062C695.533 61.8815 686.543 55.7806 677.691 50.5069C655.189 37.0988 626.942 27.8096 597.142 22.3808C571.781 17.762 545.339 15.9008 518.951 15.8491C518.951 16.4178 518.951 17.0037 518.951 17.5725C559.323 17.6242 600.111 19.0546 639.706 24.2766C657.741 26.6549 676.193 29.7053 692.647 34.9962C694.922 35.72 697.253 36.4783 699.306 37.4262C699.667 37.5985 700.361 37.5985 700.694 37.4262C707.242 34.4102 715.511 32.5145 723.03 30.7911C748.918 24.8453 776.609 21.881 803.94 20.0025C829.55 18.2446 855.3 17.5897 881.077 17.5725C882.852 17.5725 882.852 15.8491 881.077 15.8491C840.427 15.9008 799.39 17.3657 759.545 22.6221C741.398 25.0176 722.947 28.1198 706.354 33.3934C704.079 34.1172 701.776 35.3236 699.39 35.8924C700.305 35.6683 701.082 36.2198 699.861 35.5994C698.862 35.0824 697.558 34.7032 696.421 34.3241C682.214 29.3951 666.093 26.4308 650.388 24.0353C607.575 17.5208 562.93 15.9008 518.979 15.8491C517.203 15.8491 517.203 17.5725 518.979 17.5725C582.658 17.7276 652.719 29.9638 692.175 63.2257C694.562 65.2421 696.948 67.3274 698.807 69.5679C699.279 70.1366 700.749 70.1366 701.193 69.5679C706.604 63.0361 715.122 57.2282 723.529 52.1442C745.588 38.8394 773.391 29.6191 802.747 24.1904C828.163 19.4855 854.606 17.6242 881.077 17.5552C882.852 17.5725 882.852 15.8491 881.077 15.8491Z" fill="#1A1A1A"/>
</svg>
